# xmcd
#
# Track frame offsets: 
#        150
#        13127
#        23267
#        37517
#        47582
#        62337
#        73075
#        85852
#        97115
#        107870
#        118870
#        130977
#        141245
#        156695
#        167755
#        181102
#        193137
#        206545
#        218912
#        232637
#        243275
#        254952
#        266582
#
# Disc length: 3718 seconds
#
# Revision: 0
# Processed by: cddbd v1.5.2PL0 Copyright (c) Steve Scherf et al.
# Submitted via: ExactAudioCopy v0.99pb3
#
DISCID=450e8417
DTITLE=Hank Thompson - Hall Of Fame Classics
DYEAR=1989
DGENRE=Country
TTITLE0=The Wild Side Of Life
TTITLE1=Fooler A Faker
TTITLE2=Most Of All
TTITLE3=Six Pack To Go
TTITLE4=Yesterday's Girl
TTITLE5=Green Light
TTITLE6=Today
TTITLE7=Squaws Along The Yukon
TTITLE8=Honky-Tonk Girl
TTITLE9=Humpty Dumpty Heart
TTITLE10=Oklahoma Hills
TTITLE11=Whoa Sailor
TTITLE12=Girl In The Night
TTITLE13=Blackboard Of My Heart
TTITLE14=Breakin' The Rules
TTITLE15=I've Convinced Everybody
TTITLE16=A Lonely Heart Knows
TTITLE17=Swing Wide Your Gate Of Love
TTITLE18=Tears Are Only Rain
TTITLE19=Rub-A-Dub-Dub
TTITLE20=Waiting In The Lobby Of My Heart
TTITLE21=Anybody's Girl
TTITLE22=Tomorrow Night
EXTD=
EXTT0=
EXTT1=
EXTT2=
EXTT3=
EXTT4=
EXTT5=
EXTT6=
EXTT7=
EXTT8=
EXTT9=
EXTT10=
EXTT11=
EXTT12=
EXTT13=
EXTT14=
EXTT15=
EXTT16=
EXTT17=
EXTT18=
EXTT19=
EXTT20=
EXTT21=
EXTT22=
PLAYORDER=
